<svg xmlns="http://www.w3.org/2000/svg" viewBox="0 0 64 64" role="img" aria-label="Kajas favicon">
  <rect width="64" height="64" rx="14" fill="#111827"/>
  <path d="M10 19 C21 27, 28 39, 40 40 C48 41, 53 36, 58 33" fill="none" stroke="#9a5b2c" stroke-width="7" stroke-linecap="round"/>
  <path d="M10 45 C21 37, 28 25, 40 24 C48 23, 53 28, 58 31" fill="none" stroke="#d6a15f" stroke-width="7" stroke-linecap="round"/>
  <path d="M10 19 C21 27, 28 39, 40 40 C48 41, 53 36, 58 33" fill="none" stroke="#f7d89b" stroke-width="1.5" stroke-linecap="round" opacity="0.55"/>
  <path d="M10 45 C21 37, 28 25, 40 24 C48 23, 53 28, 58 31" fill="none" stroke="#f9dfaa" stroke-width="1.5" stroke-linecap="round" opacity="0.5"/>
  <circle cx="24" cy="32" r="9" fill="#111827" stroke="#c6a15f" stroke-width="4"/>
  <circle cx="42" cy="32" r="9" fill="#111827" stroke="#c6a15f" stroke-width="4"/>
  <path d="M28 20 L34 32 L28 44" fill="none" stroke="#f5c66d" stroke-width="5" stroke-linecap="round" stroke-linejoin="round"/>
  <path d="M38 20 L32 32 L38 44" fill="none" stroke="#f5c66d" stroke-width="5" stroke-linecap="round" stroke-linejoin="round"/>
</svg>
